<mxfile host="app.diagrams.net" agent="Mozilla/5.0 (Macintosh; Intel Mac OS X 10_15_7) AppleWebKit/537.36 (KHTML, like Gecko) Chrome/128.0.0.0 Safari/537.36" version="26.0.6">
  <diagram name="Page-1" id="74e2e168-ea6b-b213-b513-2b3c1d86103e">
    <mxGraphModel dx="1272" dy="777" grid="1" gridSize="10" guides="1" tooltips="1" connect="1" arrows="1" fold="1" page="1" pageScale="1" pageWidth="1100" pageHeight="850" background="none" math="0" shadow="0">
      <root>
        <mxCell id="0" />
        <mxCell id="1" parent="0" />
        <mxCell id="77e6c97f196da883-1" value="Pool" style="swimlane;html=1;childLayout=stackLayout;startSize=20;rounded=0;shadow=0;labelBackgroundColor=none;strokeWidth=1;fontFamily=Verdana;fontSize=8;align=center;" parent="1" vertex="1">
          <mxGeometry x="200" width="720" height="750" as="geometry" />
        </mxCell>
        <mxCell id="77e6c97f196da883-26" style="edgeStyle=orthogonalEdgeStyle;rounded=1;html=1;labelBackgroundColor=none;startArrow=none;startFill=0;startSize=5;endArrow=classicThin;endFill=1;endSize=5;jettySize=auto;orthogonalLoop=1;strokeWidth=1;fontFamily=Verdana;fontSize=8" parent="77e6c97f196da883-1" source="77e6c97f196da883-8" edge="1">
          <mxGeometry relative="1" as="geometry">
            <mxPoint x="190" y="115" as="targetPoint" />
          </mxGeometry>
        </mxCell>
        <mxCell id="77e6c97f196da883-2" value="bot" style="swimlane;html=1;startSize=20;" parent="77e6c97f196da883-1" vertex="1">
          <mxGeometry y="20" width="160" height="730" as="geometry" />
        </mxCell>
        <mxCell id="77e6c97f196da883-8" value="点击限价单" style="rounded=1;whiteSpace=wrap;html=1;shadow=0;labelBackgroundColor=none;strokeWidth=1;fontFamily=Verdana;fontSize=8;align=center;" parent="77e6c97f196da883-2" vertex="1">
          <mxGeometry x="20" y="65" width="100" height="60" as="geometry" />
        </mxCell>
        <mxCell id="laydcfFiuC28gxdswhlM-46" value="收到价格满足条件" style="rounded=1;whiteSpace=wrap;html=1;" vertex="1" parent="77e6c97f196da883-2">
          <mxGeometry x="20" y="350" width="110" height="30" as="geometry" />
        </mxCell>
        <mxCell id="laydcfFiuC28gxdswhlM-59" value="取消订单" style="rounded=1;whiteSpace=wrap;html=1;arcSize=0;" vertex="1" parent="77e6c97f196da883-2">
          <mxGeometry x="20" y="281.5" width="100" height="22" as="geometry" />
        </mxCell>
        <mxCell id="laydcfFiuC28gxdswhlM-78" value="通知返回结果" style="rounded=1;whiteSpace=wrap;html=1;" vertex="1" parent="77e6c97f196da883-2">
          <mxGeometry x="20" y="650" width="120" height="60" as="geometry" />
        </mxCell>
        <mxCell id="77e6c97f196da883-3" value="order-center" style="swimlane;html=1;startSize=20;" parent="77e6c97f196da883-1" vertex="1">
          <mxGeometry x="160" y="20" width="160" height="730" as="geometry" />
        </mxCell>
        <mxCell id="laydcfFiuC28gxdswhlM-3" value="创建订单" style="rhombus;whiteSpace=wrap;html=1;" vertex="1" parent="77e6c97f196da883-3">
          <mxGeometry x="40" y="55" width="80" height="80" as="geometry" />
        </mxCell>
        <mxCell id="laydcfFiuC28gxdswhlM-74" style="edgeStyle=orthogonalEdgeStyle;rounded=0;orthogonalLoop=1;jettySize=auto;html=1;exitX=0.5;exitY=1;exitDx=0;exitDy=0;entryX=0.5;entryY=0;entryDx=0;entryDy=0;" edge="1" parent="77e6c97f196da883-3" source="laydcfFiuC28gxdswhlM-56" target="laydcfFiuC28gxdswhlM-72">
          <mxGeometry relative="1" as="geometry" />
        </mxCell>
        <mxCell id="laydcfFiuC28gxdswhlM-56" value="UpdateOrderStatus" style="whiteSpace=wrap;html=1;" vertex="1" parent="77e6c97f196da883-3">
          <mxGeometry x="32.5" y="405" width="95" height="40" as="geometry" />
        </mxCell>
        <mxCell id="laydcfFiuC28gxdswhlM-77" style="edgeStyle=orthogonalEdgeStyle;rounded=0;orthogonalLoop=1;jettySize=auto;html=1;exitX=0.5;exitY=1;exitDx=0;exitDy=0;" edge="1" parent="77e6c97f196da883-3" source="laydcfFiuC28gxdswhlM-72">
          <mxGeometry relative="1" as="geometry">
            <mxPoint x="-80" y="640" as="targetPoint" />
          </mxGeometry>
        </mxCell>
        <mxCell id="laydcfFiuC28gxdswhlM-86" value="2" style="edgeLabel;html=1;align=center;verticalAlign=middle;resizable=0;points=[];" vertex="1" connectable="0" parent="laydcfFiuC28gxdswhlM-77">
          <mxGeometry x="0.2172" y="2" relative="1" as="geometry">
            <mxPoint as="offset" />
          </mxGeometry>
        </mxCell>
        <mxCell id="laydcfFiuC28gxdswhlM-72" value="订单处理" style="whiteSpace=wrap;html=1;" vertex="1" parent="77e6c97f196da883-3">
          <mxGeometry x="30" y="550" width="100" height="50" as="geometry" />
        </mxCell>
        <mxCell id="77e6c97f196da883-4" value="task-center" style="swimlane;html=1;startSize=20;" parent="77e6c97f196da883-1" vertex="1">
          <mxGeometry x="320" y="20" width="160" height="730" as="geometry" />
        </mxCell>
        <mxCell id="laydcfFiuC28gxdswhlM-55" style="edgeStyle=orthogonalEdgeStyle;rounded=0;orthogonalLoop=1;jettySize=auto;html=1;exitX=0.5;exitY=1;exitDx=0;exitDy=0;" edge="1" parent="77e6c97f196da883-4" source="laydcfFiuC28gxdswhlM-19" target="laydcfFiuC28gxdswhlM-51">
          <mxGeometry relative="1" as="geometry" />
        </mxCell>
        <mxCell id="laydcfFiuC28gxdswhlM-19" value="锁定order_id" style="rounded=1;whiteSpace=wrap;html=1;" vertex="1" parent="77e6c97f196da883-4">
          <mxGeometry x="20" y="180" width="120" height="60" as="geometry" />
        </mxCell>
        <mxCell id="laydcfFiuC28gxdswhlM-28" style="edgeStyle=orthogonalEdgeStyle;rounded=0;orthogonalLoop=1;jettySize=auto;html=1;exitX=0.5;exitY=1;exitDx=0;exitDy=0;entryX=0.5;entryY=0;entryDx=0;entryDy=0;" edge="1" parent="77e6c97f196da883-4" source="laydcfFiuC28gxdswhlM-23" target="laydcfFiuC28gxdswhlM-26">
          <mxGeometry relative="1" as="geometry" />
        </mxCell>
        <mxCell id="laydcfFiuC28gxdswhlM-23" value="构造交易上链" style="rounded=1;whiteSpace=wrap;html=1;" vertex="1" parent="77e6c97f196da883-4">
          <mxGeometry x="30" y="390" width="100" height="15" as="geometry" />
        </mxCell>
        <mxCell id="laydcfFiuC28gxdswhlM-34" style="edgeStyle=orthogonalEdgeStyle;rounded=0;orthogonalLoop=1;jettySize=auto;html=1;exitX=0.5;exitY=1;exitDx=0;exitDy=0;entryX=0.5;entryY=0;entryDx=0;entryDy=0;" edge="1" parent="77e6c97f196da883-4" source="laydcfFiuC28gxdswhlM-26" target="laydcfFiuC28gxdswhlM-29">
          <mxGeometry relative="1" as="geometry" />
        </mxCell>
        <mxCell id="laydcfFiuC28gxdswhlM-26" value="等待链上结果" style="rhombus;whiteSpace=wrap;html=1;" vertex="1" parent="77e6c97f196da883-4">
          <mxGeometry x="40" y="440" width="70" height="40" as="geometry" />
        </mxCell>
        <mxCell id="laydcfFiuC28gxdswhlM-66" style="edgeStyle=orthogonalEdgeStyle;rounded=0;orthogonalLoop=1;jettySize=auto;html=1;exitX=0.5;exitY=1;exitDx=0;exitDy=0;" edge="1" parent="77e6c97f196da883-4" source="laydcfFiuC28gxdswhlM-29" target="laydcfFiuC28gxdswhlM-35">
          <mxGeometry relative="1" as="geometry" />
        </mxCell>
        <mxCell id="laydcfFiuC28gxdswhlM-93" value="3" style="edgeLabel;html=1;align=center;verticalAlign=middle;resizable=0;points=[];" vertex="1" connectable="0" parent="laydcfFiuC28gxdswhlM-66">
          <mxGeometry x="-0.1067" relative="1" as="geometry">
            <mxPoint as="offset" />
          </mxGeometry>
        </mxCell>
        <mxCell id="laydcfFiuC28gxdswhlM-29" value="超时（1分钟）或者收到链上结果" style="rounded=1;whiteSpace=wrap;html=1;" vertex="1" parent="77e6c97f196da883-4">
          <mxGeometry x="20" y="510" width="110" height="30" as="geometry" />
        </mxCell>
        <mxCell id="laydcfFiuC28gxdswhlM-35" value="&lt;span style=&quot;background-color: transparent; color: light-dark(rgb(0, 0, 0), rgb(255, 255, 255));&quot;&gt;取消锁定order_id&lt;/span&gt;" style="rounded=1;whiteSpace=wrap;html=1;" vertex="1" parent="77e6c97f196da883-4">
          <mxGeometry x="20" y="590" width="110" height="50" as="geometry" />
        </mxCell>
        <mxCell id="laydcfFiuC28gxdswhlM-41" style="edgeStyle=orthogonalEdgeStyle;rounded=0;orthogonalLoop=1;jettySize=auto;html=1;exitX=0.5;exitY=1;exitDx=0;exitDy=0;" edge="1" parent="77e6c97f196da883-4" source="laydcfFiuC28gxdswhlM-35" target="laydcfFiuC28gxdswhlM-35">
          <mxGeometry relative="1" as="geometry" />
        </mxCell>
        <mxCell id="laydcfFiuC28gxdswhlM-90" value="2" style="edgeStyle=orthogonalEdgeStyle;rounded=0;orthogonalLoop=1;jettySize=auto;html=1;exitX=0.5;exitY=1;exitDx=0;exitDy=0;entryX=0.5;entryY=0;entryDx=0;entryDy=0;" edge="1" parent="77e6c97f196da883-4" source="laydcfFiuC28gxdswhlM-51" target="laydcfFiuC28gxdswhlM-23">
          <mxGeometry relative="1" as="geometry" />
        </mxCell>
        <mxCell id="laydcfFiuC28gxdswhlM-51" value="判断过期时间或者订单状态" style="rhombus;whiteSpace=wrap;html=1;" vertex="1" parent="77e6c97f196da883-4">
          <mxGeometry x="40" y="260" width="80" height="80" as="geometry" />
        </mxCell>
        <mxCell id="77e6c97f196da883-5" value="event-center" style="swimlane;html=1;startSize=20;" parent="77e6c97f196da883-1" vertex="1">
          <mxGeometry x="480" y="20" width="160" height="730" as="geometry" />
        </mxCell>
        <mxCell id="laydcfFiuC28gxdswhlM-17" style="edgeStyle=orthogonalEdgeStyle;rounded=0;orthogonalLoop=1;jettySize=auto;html=1;exitX=0.5;exitY=1;exitDx=0;exitDy=0;entryX=0.5;entryY=0;entryDx=0;entryDy=0;" edge="1" parent="77e6c97f196da883-5" source="77e6c97f196da883-17" target="laydcfFiuC28gxdswhlM-16">
          <mxGeometry relative="1" as="geometry" />
        </mxCell>
        <mxCell id="77e6c97f196da883-17" value="监听链上" style="rounded=1;whiteSpace=wrap;html=1;shadow=0;labelBackgroundColor=none;strokeWidth=1;fontFamily=Verdana;fontSize=8;align=center;" parent="77e6c97f196da883-5" vertex="1">
          <mxGeometry x="40" y="65" width="100" height="60" as="geometry" />
        </mxCell>
        <mxCell id="laydcfFiuC28gxdswhlM-16" value="价格满足" style="rhombus;whiteSpace=wrap;html=1;" vertex="1" parent="77e6c97f196da883-5">
          <mxGeometry x="50" y="170" width="80" height="80" as="geometry" />
        </mxCell>
        <mxCell id="laydcfFiuC28gxdswhlM-62" value="取消订阅" style="ellipse;whiteSpace=wrap;html=1;" vertex="1" parent="77e6c97f196da883-5">
          <mxGeometry x="50" y="535" width="80" height="80" as="geometry" />
        </mxCell>
        <mxCell id="laydcfFiuC28gxdswhlM-10" style="edgeStyle=orthogonalEdgeStyle;rounded=0;orthogonalLoop=1;jettySize=auto;html=1;exitX=0.5;exitY=1;exitDx=0;exitDy=0;entryX=0.5;entryY=1;entryDx=0;entryDy=0;" edge="1" parent="77e6c97f196da883-1" source="laydcfFiuC28gxdswhlM-3" target="77e6c97f196da883-8">
          <mxGeometry relative="1" as="geometry" />
        </mxCell>
        <mxCell id="laydcfFiuC28gxdswhlM-11" value="回调创建结果" style="edgeLabel;html=1;align=center;verticalAlign=middle;resizable=0;points=[];" vertex="1" connectable="0" parent="laydcfFiuC28gxdswhlM-10">
          <mxGeometry x="0.1758" y="-1" relative="1" as="geometry">
            <mxPoint as="offset" />
          </mxGeometry>
        </mxCell>
        <mxCell id="laydcfFiuC28gxdswhlM-14" style="edgeStyle=orthogonalEdgeStyle;rounded=0;orthogonalLoop=1;jettySize=auto;html=1;exitX=1;exitY=0.5;exitDx=0;exitDy=0;entryX=0;entryY=0.5;entryDx=0;entryDy=0;" edge="1" parent="77e6c97f196da883-1" source="laydcfFiuC28gxdswhlM-3" target="77e6c97f196da883-17">
          <mxGeometry relative="1" as="geometry" />
        </mxCell>
        <mxCell id="laydcfFiuC28gxdswhlM-15" value="订阅价格" style="edgeLabel;html=1;align=center;verticalAlign=middle;resizable=0;points=[];" vertex="1" connectable="0" parent="laydcfFiuC28gxdswhlM-14">
          <mxGeometry x="-0.8111" y="1" relative="1" as="geometry">
            <mxPoint x="97" y="1" as="offset" />
          </mxGeometry>
        </mxCell>
        <mxCell id="laydcfFiuC28gxdswhlM-21" style="edgeStyle=orthogonalEdgeStyle;rounded=0;orthogonalLoop=1;jettySize=auto;html=1;exitX=0;exitY=0.5;exitDx=0;exitDy=0;entryX=1;entryY=0.5;entryDx=0;entryDy=0;" edge="1" parent="77e6c97f196da883-1" source="laydcfFiuC28gxdswhlM-16" target="laydcfFiuC28gxdswhlM-19">
          <mxGeometry relative="1" as="geometry" />
        </mxCell>
        <mxCell id="laydcfFiuC28gxdswhlM-22" value="回调" style="edgeLabel;html=1;align=center;verticalAlign=middle;resizable=0;points=[];" vertex="1" connectable="0" parent="laydcfFiuC28gxdswhlM-21">
          <mxGeometry x="-0.1429" y="-4" relative="1" as="geometry">
            <mxPoint x="-1" as="offset" />
          </mxGeometry>
        </mxCell>
        <mxCell id="laydcfFiuC28gxdswhlM-57" style="edgeStyle=orthogonalEdgeStyle;rounded=0;orthogonalLoop=1;jettySize=auto;html=1;exitX=0;exitY=0.5;exitDx=0;exitDy=0;" edge="1" parent="77e6c97f196da883-1" source="laydcfFiuC28gxdswhlM-51" target="laydcfFiuC28gxdswhlM-56">
          <mxGeometry relative="1" as="geometry" />
        </mxCell>
        <mxCell id="laydcfFiuC28gxdswhlM-71" value="过期" style="edgeLabel;html=1;align=center;verticalAlign=middle;resizable=0;points=[];" vertex="1" connectable="0" parent="laydcfFiuC28gxdswhlM-57">
          <mxGeometry x="-0.2259" y="3" relative="1" as="geometry">
            <mxPoint x="1" as="offset" />
          </mxGeometry>
        </mxCell>
        <mxCell id="laydcfFiuC28gxdswhlM-65" style="edgeStyle=orthogonalEdgeStyle;rounded=0;orthogonalLoop=1;jettySize=auto;html=1;exitX=1;exitY=0.5;exitDx=0;exitDy=0;entryX=0;entryY=0.5;entryDx=0;entryDy=0;" edge="1" parent="77e6c97f196da883-1" source="laydcfFiuC28gxdswhlM-59" target="laydcfFiuC28gxdswhlM-56">
          <mxGeometry relative="1" as="geometry">
            <mxPoint x="180" y="385.66666666666674" as="targetPoint" />
          </mxGeometry>
        </mxCell>
        <mxCell id="laydcfFiuC28gxdswhlM-75" style="edgeStyle=orthogonalEdgeStyle;rounded=0;orthogonalLoop=1;jettySize=auto;html=1;exitX=1;exitY=0.5;exitDx=0;exitDy=0;entryX=0;entryY=0.5;entryDx=0;entryDy=0;" edge="1" parent="77e6c97f196da883-1" source="laydcfFiuC28gxdswhlM-72" target="laydcfFiuC28gxdswhlM-62">
          <mxGeometry relative="1" as="geometry" />
        </mxCell>
        <mxCell id="laydcfFiuC28gxdswhlM-85" value="1" style="edgeLabel;html=1;align=center;verticalAlign=middle;resizable=0;points=[];" vertex="1" connectable="0" parent="laydcfFiuC28gxdswhlM-75">
          <mxGeometry x="-0.5833" y="-1" relative="1" as="geometry">
            <mxPoint x="-1" as="offset" />
          </mxGeometry>
        </mxCell>
        <mxCell id="laydcfFiuC28gxdswhlM-79" style="edgeStyle=orthogonalEdgeStyle;rounded=0;orthogonalLoop=1;jettySize=auto;html=1;exitX=0;exitY=0.5;exitDx=0;exitDy=0;entryX=1;entryY=0.5;entryDx=0;entryDy=0;" edge="1" parent="77e6c97f196da883-1" source="laydcfFiuC28gxdswhlM-29" target="laydcfFiuC28gxdswhlM-56">
          <mxGeometry relative="1" as="geometry" />
        </mxCell>
        <mxCell id="laydcfFiuC28gxdswhlM-80" value="收到链上结果" style="edgeLabel;html=1;align=center;verticalAlign=middle;resizable=0;points=[];" vertex="1" connectable="0" parent="laydcfFiuC28gxdswhlM-79">
          <mxGeometry x="0.2538" y="1" relative="1" as="geometry">
            <mxPoint as="offset" />
          </mxGeometry>
        </mxCell>
        <mxCell id="laydcfFiuC28gxdswhlM-91" value="1" style="edgeLabel;html=1;align=center;verticalAlign=middle;resizable=0;points=[];" vertex="1" connectable="0" parent="laydcfFiuC28gxdswhlM-79">
          <mxGeometry x="-0.2708" y="3" relative="1" as="geometry">
            <mxPoint as="offset" />
          </mxGeometry>
        </mxCell>
        <mxCell id="laydcfFiuC28gxdswhlM-82" style="edgeStyle=orthogonalEdgeStyle;rounded=0;orthogonalLoop=1;jettySize=auto;html=1;exitX=1;exitY=0.5;exitDx=0;exitDy=0;entryX=1;entryY=0.5;entryDx=0;entryDy=0;" edge="1" parent="77e6c97f196da883-1" source="laydcfFiuC28gxdswhlM-29" target="77e6c97f196da883-17">
          <mxGeometry relative="1" as="geometry">
            <mxPoint x="520" y="420" as="targetPoint" />
            <Array as="points">
              <mxPoint x="680" y="545" />
              <mxPoint x="680" y="115" />
            </Array>
          </mxGeometry>
        </mxCell>
        <mxCell id="laydcfFiuC28gxdswhlM-83" value="未收到结果，继续等待" style="edgeLabel;html=1;align=center;verticalAlign=middle;resizable=0;points=[];" vertex="1" connectable="0" parent="laydcfFiuC28gxdswhlM-82">
          <mxGeometry x="0.0575" relative="1" as="geometry">
            <mxPoint y="-56" as="offset" />
          </mxGeometry>
        </mxCell>
        <mxCell id="laydcfFiuC28gxdswhlM-92" value="2" style="edgeLabel;html=1;align=center;verticalAlign=middle;resizable=0;points=[];" vertex="1" connectable="0" parent="laydcfFiuC28gxdswhlM-82">
          <mxGeometry x="-0.7685" relative="1" as="geometry">
            <mxPoint x="-1" as="offset" />
          </mxGeometry>
        </mxCell>
        <mxCell id="laydcfFiuC28gxdswhlM-88" style="edgeStyle=orthogonalEdgeStyle;rounded=0;orthogonalLoop=1;jettySize=auto;html=1;exitX=0.5;exitY=1;exitDx=0;exitDy=0;entryX=1;entryY=0.5;entryDx=0;entryDy=0;" edge="1" parent="77e6c97f196da883-1" source="laydcfFiuC28gxdswhlM-51" target="laydcfFiuC28gxdswhlM-46">
          <mxGeometry relative="1" as="geometry" />
        </mxCell>
        <mxCell id="laydcfFiuC28gxdswhlM-89" value="1" style="edgeLabel;html=1;align=center;verticalAlign=middle;resizable=0;points=[];" vertex="1" connectable="0" parent="laydcfFiuC28gxdswhlM-88">
          <mxGeometry x="0.0734" relative="1" as="geometry">
            <mxPoint as="offset" />
          </mxGeometry>
        </mxCell>
      </root>
    </mxGraphModel>
  </diagram>
</mxfile>
